<?xml version="1.0" encoding="UTF-8" standalone="no"?>
<svg
   xmlns:osb="http://www.openswatchbook.org/uri/2009/osb"
   xmlns:dc="http://purl.org/dc/elements/1.1/"
   xmlns:cc="http://creativecommons.org/ns#"
   xmlns:rdf="http://www.w3.org/1999/02/22-rdf-syntax-ns#"
   xmlns:svg="http://www.w3.org/2000/svg"
   xmlns="http://www.w3.org/2000/svg"
   xmlns:sodipodi="http://sodipodi.sourceforge.net/DTD/sodipodi-0.dtd"
   xmlns:inkscape="http://www.inkscape.org/namespaces/inkscape"
   sodipodi:docname="furuta1.svg"
   inkscape:version="1.0 (4035a4fb49, 2020-05-01)"
   id="svg8"
   version="1.1"
   viewBox="0 0 210 297"
   height="297mm"
   width="210mm">
  <defs
     id="defs2">
    <rect
       id="rect4229"
       height="14.469401"
       width="30.592448"
       y="209.1862"
       x="51.263021" />
    <inkscape:perspective
       id="perspective4175"
       inkscape:persp3d-origin="362.95803 : 143.28713 : 1"
       inkscape:vp_z="718.68954 : 456.70511 : 1"
       inkscape:vp_y="-182.89352 : 984.61639 : 0"
       inkscape:vp_x="-341.60909 : 3.4138753 : 1"
       sodipodi:type="inkscape:persp3d" />
    <marker
       inkscape:isstock="true"
       style="overflow:visible"
       id="Arrow1Lstart"
       refX="0.0"
       refY="0.0"
       orient="auto"
       inkscape:stockid="Arrow1Lstart">
      <path
         transform="scale(0.8) translate(12.5,0)"
         style="fill-rule:evenodd;stroke:#000000;stroke-width:1pt;stroke-opacity:1;fill:#000000;fill-opacity:1"
         d="M 0.0,0.0 L 5.0,-5.0 L -12.5,0.0 L 5.0,5.0 L 0.0,0.0 z "
         id="path3760" />
    </marker>
    <linearGradient
       osb:paint="solid"
       id="linearGradient2914">
      <stop
         id="stop2912"
         offset="0"
         style="stop-color:#0000ff;stop-opacity:1;" />
    </linearGradient>
    <linearGradient
       osb:paint="solid"
       id="linearGradient944">
      <stop
         id="stop942"
         offset="0"
         style="stop-color:#000001;stop-opacity:1;" />
    </linearGradient>
    <linearGradient
       osb:paint="solid"
       id="linearGradient936">
      <stop
         id="stop934"
         offset="0"
         style="stop-color:#0000ff;stop-opacity:1;" />
    </linearGradient>
    <marker
       inkscape:stockid="Arrow1Lstart"
       orient="auto"
       refY="0"
       refX="0"
       id="Arrow1Lstart-8"
       style="overflow:visible"
       inkscape:isstock="true">
      <path
         id="path3760-8"
         d="M 0,0 5,-5 -12.5,0 5,5 Z"
         style="fill:#000000;fill-opacity:1;fill-rule:evenodd;stroke:#000000;stroke-width:1pt;stroke-opacity:1"
         transform="matrix(0.8,0,0,0.8,10,0)" />
    </marker>
    <rect
       x="51.26302"
       y="209.1862"
       width="30.592447"
       height="14.469401"
       id="rect4229-0" />
    <rect
       x="51.26302"
       y="209.1862"
       width="30.592447"
       height="14.469401"
       id="rect4242" />
  </defs>
  <sodipodi:namedview
     inkscape:window-maximized="1"
     inkscape:window-y="-8"
     inkscape:window-x="-8"
     inkscape:window-height="705"
     inkscape:window-width="1366"
     inkscape:snap-nodes="false"
     inkscape:snap-smooth-nodes="false"
     inkscape:object-nodes="true"
     inkscape:snap-bbox="true"
     showgrid="false"
     inkscape:document-rotation="0"
     inkscape:current-layer="layer1"
     inkscape:document-units="mm"
     inkscape:cy="425.81763"
     inkscape:cx="562.44619"
     inkscape:zoom="0.8553286"
     inkscape:pageshadow="2"
     inkscape:pageopacity="0.0"
     borderopacity="1.0"
     bordercolor="#666666"
     pagecolor="#ffffff"
     id="base" />
  <metadata
     id="metadata5">
    <rdf:RDF>
      <cc:Work
         rdf:about="">
        <dc:format>image/svg+xml</dc:format>
        <dc:type
           rdf:resource="http://purl.org/dc/dcmitype/StillImage" />
        <dc:title />
      </cc:Work>
    </rdf:RDF>
  </metadata>
  <g
     id="layer1"
     inkscape:groupmode="layer"
     inkscape:label="Слой 1">
    <rect
       transform="matrix(0.99999996,-2.9301728e-4,-0.85335803,0.5213253,0,0)"
       y="190.11288"
       x="213.28862"
       height="32.332531"
       width="82.948814"
       id="rect10"
       style="fill:#ffffff;fill-opacity:1;fill-rule:evenodd;stroke:#000000;stroke-width:1.38532;stroke-miterlimit:4;stroke-dasharray:none" />
    <path
       id="path842-9"
       style="fill:#ffffff;stroke:#000000;stroke-width:0.5;stroke-miterlimit:4;stroke-dasharray:none"
       d="M 55.93757,56.986264 V 105.3061 h 0.138466 a 21.769205,5.6390894 0 0 0 -0.05989,0.41175 21.769205,5.6390894 0 0 0 21.769276,5.6388 21.769205,5.6390894 0 0 0 21.769277,-5.6388 21.769205,5.6390894 0 0 0 -0.07485,-0.46692 V 56.986264 Z" />
    <ellipse
       ry="5.6390901"
       rx="21.769205"
       cy="56.501282"
       cx="77.643883"
       id="path842-0-2"
       style="fill:#ffffff;fill-opacity:1;stroke:#000000;stroke-width:0.827342;stroke-miterlimit:4;stroke-dasharray:none" />
    <path
       id="rect3521-7"
       style="opacity:1;fill:#ffffff;fill-opacity:1;fill-rule:nonzero;stroke:#000000;stroke-width:0.426627;stroke-linecap:round;stroke-linejoin:round;stroke-miterlimit:4;stroke-dasharray:none;stroke-dashoffset:0;stroke-opacity:1;paint-order:fill markers stroke"
       d="m 61.552605,36.278804 -0.02998,0.0491 a 1.1792543,1.9570179 38.273153 0 0 -0.295587,-0.0465 1.1792543,1.9570179 38.273153 0 0 -2.054138,1.70119 1.1792543,1.9570179 38.273153 0 0 0.340545,1.64641 l -0.03927,0.0646 84.122525,26.87019 2.07843,-3.41479 z" />
    <rect
       y="116.67194"
       x="22.718252"
       height="8.9972095"
       width="83.543037"
       id="rect12"
       style="fill:#ffffff;fill-rule:evenodd;stroke:#000000;stroke-width:1;stroke-miterlimit:4;stroke-dasharray:none" />
    <rect
       transform="matrix(0.85418984,-0.51996127,0.00181358,0.99999836,0,0)"
       y="181.09096"
       x="124.80363"
       height="9.4392128"
       width="32.856495"
       id="rect17"
       style="fill:#ffffff;fill-rule:evenodd;stroke:#000000;stroke-width:0.697848;stroke-miterlimit:4;stroke-dasharray:none" />
    <path
       d="m 71.05871,35.861784 v 19.46651 h 0.03824 a 6.0120172,2.271808 0 0 0 -0.01654,0.16588 6.0120172,2.271808 0 0 0 6.012037,2.2717 6.0120172,2.271808 0 0 0 6.012037,-2.2717 6.0120172,2.271808 0 0 0 -0.02067,-0.1881 v -19.44429 z"
       style="fill:#ffffff;stroke:#000000;stroke-width:0.5;stroke-miterlimit:4;stroke-dasharray:none"
       id="path842" />
    <ellipse
       style="fill:#ffffff;fill-opacity:1;stroke:#000000;stroke-width:0.275966;stroke-miterlimit:4;stroke-dasharray:none"
       id="path842-0"
       cx="77.05336"
       cy="35.66637"
       rx="6.0120173"
       ry="2.2718081" />
    <rect
       y="69.546501"
       x="160.81441"
       height="40.33083"
       width="0.25918823"
       id="rect3519"
       style="opacity:1;fill:#0000ff;fill-opacity:1;fill-rule:nonzero;stroke:#000000;stroke-width:1.008;stroke-linecap:round;stroke-linejoin:round;stroke-miterlimit:4;stroke-dasharray:none;stroke-dashoffset:0;stroke-opacity:1;paint-order:fill markers stroke" />
    <path
       d="m 82.15457,42.901424 -0.02998,0.0491 a 1.1792543,1.9570179 38.273153 0 0 -0.295587,-0.0465 1.1792543,1.9570179 38.273153 0 0 -2.054138,1.70119 1.1792543,1.9570179 38.273153 0 0 0.340545,1.64641 l -0.03927,0.0646 84.12252,26.870195 2.07843,-3.41479 z"
       style="opacity:1;fill:#ffffff;fill-opacity:1;fill-rule:nonzero;stroke:#000000;stroke-width:0.426627;stroke-linecap:round;stroke-linejoin:round;stroke-miterlimit:4;stroke-dasharray:none;stroke-dashoffset:0;stroke-opacity:1;paint-order:fill markers stroke"
       id="rect3521" />
    <ellipse
       style="opacity:1;fill:#0000ff;fill-opacity:1;fill-rule:nonzero;stroke:#000000;stroke-width:0.507683;stroke-linecap:round;stroke-linejoin:round;stroke-miterlimit:4;stroke-dasharray:none;stroke-dashoffset:0;stroke-opacity:1;paint-order:fill markers stroke"
       id="path3523-2"
       cx="194.62424"
       cy="77.270119"
       rx="1.3565943"
       ry="1.8385353"
       transform="matrix(1,0,-0.37924751,0.92529526,0,0)" />
    <rect
       style="opacity:1;fill:#0000ff;fill-opacity:1;fill-rule:nonzero;stroke:#000000;stroke-width:0.815318;stroke-linecap:round;stroke-linejoin:round;stroke-miterlimit:4;stroke-dasharray:none;stroke-dashoffset:0;stroke-opacity:1;paint-order:fill markers stroke"
       id="rect3519-4"
       width="0.45468229"
       height="4.6298285"
       x="160.81735"
       y="65.663483" />
    <ellipse
       style="opacity:1;fill:#ffffff;fill-opacity:1;fill-rule:nonzero;stroke:#000000;stroke-width:0.400008;stroke-linecap:round;stroke-linejoin:round;stroke-miterlimit:4;stroke-dasharray:none;stroke-dashoffset:0;stroke-opacity:1;paint-order:fill markers stroke"
       id="path3523-2-4-8"
       cx="161.9825"
       cy="114.71669"
       rx="4.7381549"
       ry="4.7386236"
       transform="matrix(1,0,-0.00916339,0.99995802,0,0)" />
    <ellipse
       transform="matrix(1,0,-0.01951742,0.99980952,0,0)"
       ry="24.54158"
       rx="55.805794"
       cy="42.138412"
       cx="75.778206"
       id="path842-0-5"
       style="fill:none;stroke:#000000;stroke-width:0.562707;stroke-miterlimit:4;stroke-dasharray:1.12542, 0.562707;stroke-dashoffset:0" />
    <ellipse
       style="fill:none;stroke:#000000;stroke-width:0.520738;stroke-miterlimit:4;stroke-dasharray:1.04148, 0.520738;stroke-dashoffset:0"
       id="path842-0-5-6"
       cx="164.58235"
       cy="62.553036"
       rx="22.827091"
       ry="51.380955"
       transform="matrix(0.99909867,0.04244824,-0.04250406,0.99909629,0,0)" />
    <path
       sodipodi:nodetypes="cc"
       id="path3758"
       d="m 64.976469,29.848304 c 20.022365,-12.100072 28.265932,4.00662 28.726191,10.29985"
       style="fill:none;stroke:#000000;stroke-width:0.264583px;stroke-linecap:butt;stroke-linejoin:miter;stroke-opacity:1;marker-start:url(#Arrow1Lstart)" />
    <path
       style="fill:none;stroke:#000000;stroke-width:0.26114px;stroke-linecap:butt;stroke-linejoin:miter;stroke-opacity:1;marker-start:url(#Arrow1Lstart-8)"
       d="m 189.99227,90.691879 c -0.0169,6.018089 -0.26181,10.642701 -1.16022,14.304271 -0.76925,3.13518 -2.05886,5.56432 -3.63238,7.55761 -2.131,2.69951 -4.81207,5.03044 -7.35402,6.34277 -1.96095,1.01238 -4.36573,1.84938 -5.51855,2.32928"
       id="path3758-0"
       sodipodi:nodetypes="csssc" />
    <path
       d="m 156.46073,65.008434 a 2.1970159,3.7456334 20.750235 0 0 -0.64544,0.12816 2.1970159,3.7456334 20.750235 0 0 -2.64945,4.409545 2.1970159,3.7456334 20.750235 0 0 1.59111,2.6386 l -0.0155,0.0506 9.49555,2.91196 2.20555,-7.191815 -9.49555,-2.91196 -0.016,0.0512 a 2.1970159,3.7456334 20.750235 0 0 -0.47025,-0.0863 z"
       style="opacity:1;fill:#ffffff;fill-opacity:1;fill-rule:nonzero;stroke:#000000;stroke-width:0.499999;stroke-linecap:round;stroke-linejoin:miter;stroke-miterlimit:4;stroke-dasharray:none;stroke-dashoffset:0;stroke-opacity:1;paint-order:fill markers stroke"
       id="rect4191" />
    <ellipse
       transform="matrix(0.93177597,-0.3630338,-0.06135058,0.99811628,0,0)"
       ry="3.4667861"
       rx="2.6149654"
       cy="139.58446"
       cx="186.61519"
       id="path3523-2-8"
       style="opacity:1;fill:#ffffff;fill-opacity:1;fill-rule:nonzero;stroke:#000000;stroke-width:0.524792;stroke-linecap:round;stroke-linejoin:round;stroke-miterlimit:4;stroke-dasharray:none;stroke-dashoffset:0;stroke-opacity:1;paint-order:fill markers stroke" />
    <text
       transform="translate(9.5084636,-126.0905)"
       style="font-style:normal;font-weight:normal;font-size:10.5833px;line-height:1.25;font-family:sans-serif;white-space:pre;shape-inside:url(#rect4229);fill:#000000;fill-opacity:1;stroke:none;"
       id="text4227"
       xml:space="preserve"><tspan
         x="51.263672"
         y="218.84101"><tspan>Motor</tspan></tspan></text>
    <text
       xml:space="preserve"
       id="text4227-3"
       style="font-style:normal;font-weight:normal;font-size:10.5833px;line-height:1.25;font-family:sans-serif;white-space:pre;shape-inside:url(#rect4229-0);fill:#000000;fill-opacity:1;stroke:none;"
       transform="matrix(0.95053431,0.31061957,-0.35966491,1.1006191,127.82798,-216.68003)"><tspan
         x="51.263672"
         y="218.84101"><tspan>Arm</tspan></tspan></text>
    <text
       id="text4264"
       y="131.85469"
       x="134.74329"
       style="font-style:normal;font-weight:normal;font-size:10.5833px;line-height:1.25;font-family:sans-serif;fill:#000000;fill-opacity:1;stroke:none;stroke-width:0.264583"
       xml:space="preserve"><tspan
         style="stroke-width:0.264583"
         y="131.85469"
         x="134.74329"
         id="tspan4262"
         sodipodi:role="line">Pendulum</tspan></text>
    <rect
       style="opacity:1;fill:#0000ff;fill-opacity:1;fill-rule:nonzero;stroke:#000000;stroke-width:0.831653;stroke-linecap:round;stroke-linejoin:round;stroke-miterlimit:4;stroke-dasharray:none;stroke-dashoffset:0;stroke-opacity:1;paint-order:markers fill stroke"
       id="rect3519-3"
       width="0.47475955"
       height="4.6134925"
       x="160.81694"
       y="62.915825" />
  </g>
</svg>
